0
SECTION
2
HEADER
9
$INSUNITS
70
4
0
ENDSEC
0
SECTION
2
TABLES
0
TABLE
2
LTYPE
0
LTYPE
72
65
70
64
2
CONTINUOUS
3
______
73
0
40
0
0
ENDTAB
0
TABLE
2
LAYER
0
ENDTAB
0
ENDSEC
0
SECTION
2
ENTITIES
0
LINE
8
0
10
185
20
-200
11
100
21
-200
0
LINE
8
0
10
100
20
-200
11
100
21
-134.5
0
LINE
8
0
10
100
20
-134.5
11
134.5
21
-134.5
0
LINE
8
0
10
134.5
20
-134.5
11
134.5
21
-160
0
LINE
8
0
10
134.5
20
-160
11
135
21
-160
0
LINE
8
0
10
135
20
-160
11
135
21
-134
0
LINE
8
0
10
135
20
-134
11
100
21
-134
0
LINE
8
0
10
100
20
-134
11
100
21
-100
0
LINE
8
0
10
100
20
-100
11
200
21
-100
0
LINE
8
0
10
200
20
-100
11
200
21
-169.75
0
LINE
8
0
10
200
20
-169.75
11
185
21
-169.75
0
LINE
8
0
10
185
20
-169.75
11
185
21
-172.5
0
LINE
8
0
10
185
20
-172.5
11
185.5
21
-172.5
0
LINE
8
0
10
185.5
20
-172.5
11
185.5
21
-170.25
0
LINE
8
0
10
185.5
20
-170.25
11
200
21
-170.25
0
LINE
8
0
10
200
20
-170.25
11
200
21
-179.75
0
LINE
8
0
10
200
20
-179.75
11
185.5
21
-179.75
0
LINE
8
0
10
185.5
20
-179.75
11
185.5
21
-177.5
0
LINE
8
0
10
185.5
20
-177.5
11
185
21
-177.5
0
LINE
8
0
10
185
20
-177.5
11
185
21
-182.5
0
LINE
8
0
10
185
20
-182.5
11
185.5
21
-182.5
0
LINE
8
0
10
185.5
20
-182.5
11
185.5
21
-180.25
0
LINE
8
0
10
185.5
20
-180.25
11
200
21
-180.25
0
LINE
8
0
10
200
20
-180.25
11
200
21
-189.75
0
LINE
8
0
10
200
20
-189.75
11
185.5
21
-189.75
0
LINE
8
0
10
185.5
20
-189.75
11
185.5
21
-187.5
0
LINE
8
0
10
185.5
20
-187.5
11
185
21
-187.5
0
LINE
8
0
10
185
20
-187.5
11
185
21
-192.5
0
LINE
8
0
10
185
20
-192.5
11
185.5
21
-192.5
0
LINE
8
0
10
185.5
20
-192.5
11
185.5
21
-190.25
0
LINE
8
0
10
185.5
20
-190.25
11
200
21
-190.25
0
LINE
8
0
10
200
20
-190.25
11
200
21
-200
0
LINE
8
0
10
200
20
-200
11
185.5
21
-200
0
LINE
8
0
10
185.5
20
-200
11
185.5
21
-197.5
0
LINE
8
0
10
185.5
20
-197.5
11
185
21
-197.5
0
LINE
8
0
10
185
20
-197.5
11
185
21
-200
0
ENDSEC
0
EOF