0
SECTION
2
HEADER
9
$INSUNITS
70
4
0
ENDSEC
0
SECTION
2
TABLES
0
TABLE
2
LTYPE
0
LTYPE
72
65
70
64
2
CONTINUOUS
3
______
73
0
40
0
0
ENDTAB
0
TABLE
2
LAYER
0
ENDTAB
0
ENDSEC
0
SECTION
2
ENTITIES
0
LINE
8
0
10
206.4268191
20
-143.6492716
11
194.7907038
21
-163.4915981
0
LINE
8
0
10
184.3625463
20
-166.6251305
11
148.2106907
21
-148.8662537
0
LINE
8
0
10
143.2942626
20
-148.1682207
11
105.6862674
21
-154.799525
0
LINE
8
0
10
96.4186199
20
-148.3102485
11
89.7360527
21
-110.4115267
0
LINE
8
0
10
93.282531
20
-102.2967248
11
109.1651113
21
-92.0667216
0
LINE
8
0
10
109.8455136
20
-91.674336
11
126.2505211
21
-83.2584603
0
LINE
8
0
10
129.4834146
20
-82.3874261
11
144.9564294
21
-81.5765198
0
LINE
8
0
10
146.5344782
20
-81.6500092
11
180.9492992
21
-86.6906186
0
LINE
8
0
10
182.10866
20
-86.7750718
11
199.5259041
21
-86.7750718
0
LINE
8
0
10
207.5259041
20
-94.7750718
11
207.5259041
21
-139.6023749
0
ARC
8
0
10
187.8897888
20
-159.4447015
40
8
50
243.8383422
51
329.6114039
0
ARC
8
0
10
144.6834482
20
-156.0466827
40
8
50
63.8383422
51
100.0000008
0
ARC
8
0
10
104.2970819
20
-146.921063
40
8
50
190.0000008
51
280.0000008
0
ARC
8
0
10
97.6145147
20
-109.0223412
40
8
50
122.7856706
51
190.0000008
0
ARC
8
0
10
113.4970951
20
-98.792338
40
8
50
117.1581191
51
122.7856706
0
ARC
8
0
10
129.9021026
20
-90.3764624
40
8
50
93.0000026
51
117.1581191
0
ARC
8
0
10
145.3751175
20
-89.565556
40
8
50
81.6673479
51
93.0000026
0
ARC
8
0
10
182.10866
20
-78.7750718
40
8
50
261.6673479
51
270
0
ARC
8
0
10
199.5259041
20
-94.7750718
40
8
50
0
51
90
0
ARC
8
0
10
199.5259041
20
-139.6023749
40
8
50
329.6114039
51
0
0
LINE
8
0
10
100.281842
20
-152.6554198
11
115.5463622
21
-149.963873
0
LINE
8
0
10
115.5463622
20
-149.963873
11
112.8548154
21
-134.6993528
0
LINE
8
0
10
112.8548154
20
-134.6993528
11
97.5902952
21
-137.3908996
0
LINE
8
0
10
97.5902952
20
-137.3908996
11
100.281842
21
-152.6554198
0
LINE
8
0
10
97.5034711
20
-136.8984957
11
112.7679913
21
-134.2069489
0
LINE
8
0
10
112.7679913
20
-134.2069489
11
110.0764445
21
-118.9424287
0
LINE
8
0
10
110.0764445
20
-118.9424287
11
94.8119243
21
-121.6339755
0
LINE
8
0
10
94.8119243
20
-121.6339755
11
97.5034711
21
-136.8984957
0
LINE
8
0
10
94.7251003
20
-121.1415717
11
109.9896205
21
-118.4500249
0
LINE
8
0
10
109.9896205
20
-118.4500249
11
107.2980737
21
-103.1855047
0
LINE
8
0
10
107.2980737
20
-103.1855047
11
92.0335535
21
-105.8770515
0
LINE
8
0
10
92.0335535
20
-105.8770515
11
94.7251003
21
-121.1415717
0
LINE
8
0
10
115.8345855
20
-140.2060896
11
131.2496749
21
-138.5858984
0
LINE
8
0
10
131.2496749
20
-138.5858984
11
129.6294837
21
-123.170809
0
LINE
8
0
10
129.6294837
20
-123.170809
11
114.2143943
21
-124.7910002
0
LINE
8
0
10
114.2143943
20
-124.7910002
11
115.8345855
21
-140.2060896
0
LINE
8
0
10
114.1621301
20
-124.2937393
11
129.5772195
21
-122.6735481
0
LINE
8
0
10
129.5772195
20
-122.6735481
11
127.9570283
21
-107.2584587
0
LINE
8
0
10
127.9570283
20
-107.2584587
11
112.5419389
21
-108.8786499
0
LINE
8
0
10
112.5419389
20
-108.8786499
11
114.1621301
21
-124.2937393
0
LINE
8
0
10
112.4896747
20
-108.3813889
11
127.9047641
21
-106.7611977
0
LINE
8
0
10
127.9047641
20
-106.7611977
11
126.2845729
21
-91.3461083
0
LINE
8
0
10
126.2845729
20
-91.3461083
11
110.8694835
21
-92.9662995
0
LINE
8
0
10
110.8694835
20
-92.9662995
11
112.4896747
21
-108.3813889
0
LINE
8
0
10
131.5734324
20
-131.0947947
11
147.0521902
21
-130.2835873
0
LINE
8
0
10
147.0521902
20
-130.2835873
11
146.2409828
21
-114.8048295
0
LINE
8
0
10
146.2409828
20
-114.8048295
11
130.762225
21
-115.6160369
0
LINE
8
0
10
130.762225
20
-115.6160369
11
131.5734324
21
-131.0947947
0
LINE
8
0
10
130.7360571
20
-115.1167222
11
146.2148149
21
-114.3055148
0
LINE
8
0
10
146.2148149
20
-114.3055148
11
145.4036075
21
-98.826757
0
LINE
8
0
10
145.4036075
20
-98.826757
11
129.9248497
21
-99.6379644
0
LINE
8
0
10
129.9248497
20
-99.6379644
11
130.7360571
21
-115.1167222
0
LINE
8
0
10
129.8986819
20
-99.1386497
11
145.3774397
21
-98.3274423
0
LINE
8
0
10
145.3774397
20
-98.3274423
11
144.5662323
21
-82.8486845
0
LINE
8
0
10
144.5662323
20
-82.8486845
11
129.0874745
21
-83.6598919
0
LINE
8
0
10
129.0874745
20
-83.6598919
11
129.8986819
21
-99.1386497
0
LINE
8
0
10
148.2799641
20
-133.9491621
11
163.7776034
21
-133.6786498
0
LINE
8
0
10
163.7776034
20
-133.6786498
11
163.5070911
21
-118.1810105
0
LINE
8
0
10
163.5070911
20
-118.1810105
11
148.0094518
21
-118.4515228
0
LINE
8
0
10
148.0094518
20
-118.4515228
11
148.2799641
21
-133.9491621
0
LINE
8
0
10
148.0007255
20
-117.951599
11
163.4983648
21
-117.6810867
0
LINE
8
0
10
163.4983648
20
-117.6810867
11
163.2278525
21
-102.1834474
0
LINE
8
0
10
163.2278525
20
-102.1834474
11
147.7302132
21
-102.4539597
0
LINE
8
0
10
147.7302132
20
-102.4539597
11
148.0007255
21
-117.951599
0
LINE
8
0
10
147.721487
20
-101.9540359
11
163.2191263
21
-101.6835236
0
LINE
8
0
10
163.2191263
20
-101.6835236
11
162.948614
21
-86.1858843
0
LINE
8
0
10
162.948614
20
-86.1858843
11
147.4509747
21
-86.4563966
0
LINE
8
0
10
147.4509747
20
-86.4563966
11
147.721487
21
-101.9540359
0
LINE
8
0
10
164.7759042
20
-135.5250717
11
180.2759042
21
-135.5250717
0
LINE
8
0
10
180.2759042
20
-135.5250717
11
180.2759042
21
-120.0250717
0
LINE
8
0
10
180.2759042
20
-120.0250717
11
164.7759042
21
-120.0250717
0
LINE
8
0
10
164.7759042
20
-120.0250717
11
164.7759042
21
-135.5250717
0
LINE
8
0
10
164.7759042
20
-119.5250717
11
180.2759042
21
-119.5250717
0
LINE
8
0
10
180.2759042
20
-119.5250717
11
180.2759042
21
-104.0250717
0
LINE
8
0
10
180.2759042
20
-104.0250717
11
164.7759042
21
-104.0250717
0
LINE
8
0
10
164.7759042
20
-104.0250717
11
164.7759042
21
-119.5250717
0
LINE
8
0
10
164.7759041
20
-103.5250718
11
180.2759041
21
-103.5250718
0
LINE
8
0
10
180.2759041
20
-103.5250718
11
180.2759041
21
-88.0250718
0
LINE
8
0
10
180.2759041
20
-88.0250718
11
164.7759041
21
-88.0250718
0
LINE
8
0
10
164.7759041
20
-88.0250718
11
164.7759041
21
-103.5250718
0
LINE
8
0
10
160.5341314
20
-153.2551493
11
175.5059818
21
-157.2668445
0
LINE
8
0
10
175.5059818
20
-157.2668445
11
179.517677
21
-142.2949941
0
LINE
8
0
10
179.517677
20
-142.2949941
11
164.5458266
21
-138.2832989
0
LINE
8
0
10
164.5458266
20
-138.2832989
11
160.5341314
21
-153.2551493
0
LINE
8
0
10
176.4920967
20
-157.984924
11
189.9154905
21
-165.734924
0
LINE
8
0
10
189.9154905
20
-165.734924
11
197.6654905
21
-152.3115302
0
LINE
8
0
10
197.6654905
20
-152.3115302
11
184.2420967
21
-144.5615302
0
LINE
8
0
10
184.2420967
20
-144.5615302
11
176.4920967
21
-157.984924
0
ENDSEC
0
EOF