0
SECTION
2
HEADER
9
$INSUNITS
70
4
0
ENDSEC
0
SECTION
2
TABLES
0
TABLE
2
LTYPE
0
LTYPE
72
65
70
64
2
CONTINUOUS
3
______
73
0
40
0
0
ENDTAB
0
TABLE
2
LAYER
0
ENDTAB
0
ENDSEC
0
SECTION
2
ENTITIES
0
LINE
8
0
10
215.7307681
20
-143.6492716
11
227.3668834
21
-163.4915981
0
LINE
8
0
10
237.7950409
20
-166.6251305
11
273.9468965
21
-148.8662537
0
LINE
8
0
10
278.8633246
20
-148.1682207
11
316.4713198
21
-154.799525
0
LINE
8
0
10
325.7389673
20
-148.3102485
11
332.4215345
21
-110.4115267
0
LINE
8
0
10
328.8750562
20
-102.2967248
11
312.9924759
21
-92.0667216
0
LINE
8
0
10
312.3120736
20
-91.674336
11
295.9070661
21
-83.2584603
0
LINE
8
0
10
292.6741726
20
-82.3874261
11
277.2011578
21
-81.5765198
0
LINE
8
0
10
275.623109
20
-81.6500092
11
241.208288
21
-86.6906186
0
LINE
8
0
10
240.0489272
20
-86.7750718
11
222.6316831
21
-86.7750718
0
LINE
8
0
10
214.6316831
20
-94.7750718
11
214.6316831
21
-139.6023749
0
ARC
8
0
10
234.2677984
20
-159.4447015
40
8
50
210.3885961
51
296.1616578
0
ARC
8
0
10
277.474139
20
-156.0466827
40
8
50
79.9999992
51
116.1616578
0
ARC
8
0
10
317.8605053
20
-146.921063
40
8
50
259.9999992
51
349.9999992
0
ARC
8
0
10
324.5430725
20
-109.0223412
40
8
50
349.9999992
51
57.2143294
0
ARC
8
0
10
308.6604921
20
-98.792338
40
8
50
57.2143294
51
62.8418809
0
ARC
8
0
10
292.2554846
20
-90.3764624
40
8
50
62.8418809
51
86.9999974
0
ARC
8
0
10
276.7824697
20
-89.565556
40
8
50
86.9999974
51
98.3326521
0
ARC
8
0
10
240.0489272
20
-78.7750718
40
8
50
270
51
278.3326521
0
ARC
8
0
10
222.6316831
20
-94.7750718
40
8
50
90
51
180
0
ARC
8
0
10
222.6316831
20
-139.6023749
40
8
50
180
51
210.3885961
0
LINE
8
0
10
306.611225
20
-149.963873
11
321.8757452
21
-152.6554198
0
LINE
8
0
10
321.8757452
20
-152.6554198
11
324.567292
21
-137.3908996
0
LINE
8
0
10
324.567292
20
-137.3908996
11
309.3027718
21
-134.6993528
0
LINE
8
0
10
309.3027718
20
-134.6993528
11
306.611225
21
-149.963873
0
LINE
8
0
10
309.3895959
20
-134.2069489
11
324.6541161
21
-136.8984957
0
LINE
8
0
10
324.6541161
20
-136.8984957
11
327.3456629
21
-121.6339755
0
LINE
8
0
10
327.3456629
20
-121.6339755
11
312.0811427
21
-118.9424287
0
LINE
8
0
10
312.0811427
20
-118.9424287
11
309.3895959
21
-134.2069489
0
LINE
8
0
10
312.1679667
20
-118.4500249
11
327.4324869
21
-121.1415717
0
LINE
8
0
10
327.4324869
20
-121.1415717
11
330.1240337
21
-105.8770515
0
LINE
8
0
10
330.1240337
20
-105.8770515
11
314.8595135
21
-103.1855047
0
LINE
8
0
10
314.8595135
20
-103.1855047
11
312.1679667
21
-118.4500249
0
LINE
8
0
10
290.9079123
20
-138.5858984
11
306.3230017
21
-140.2060896
0
LINE
8
0
10
306.3230017
20
-140.2060896
11
307.9431929
21
-124.7910002
0
LINE
8
0
10
307.9431929
20
-124.7910002
11
292.5281035
21
-123.170809
0
LINE
8
0
10
292.5281035
20
-123.170809
11
290.9079123
21
-138.5858984
0
LINE
8
0
10
292.5803677
20
-122.6735481
11
307.9954571
21
-124.2937393
0
LINE
8
0
10
307.9954571
20
-124.2937393
11
309.6156483
21
-108.8786499
0
LINE
8
0
10
309.6156483
20
-108.8786499
11
294.2005589
21
-107.2584587
0
LINE
8
0
10
294.2005589
20
-107.2584587
11
292.5803677
21
-122.6735481
0
LINE
8
0
10
294.2528231
20
-106.7611977
11
309.6679125
21
-108.3813889
0
LINE
8
0
10
309.6679125
20
-108.3813889
11
311.2881037
21
-92.9662995
0
LINE
8
0
10
311.2881037
20
-92.9662995
11
295.8730143
21
-91.3461083
0
LINE
8
0
10
295.8730143
20
-91.3461083
11
294.2528231
21
-106.7611977
0
LINE
8
0
10
275.105397
20
-130.2835873
11
290.5841548
21
-131.0947947
0
LINE
8
0
10
290.5841548
20
-131.0947947
11
291.3953622
21
-115.6160369
0
LINE
8
0
10
291.3953622
20
-115.6160369
11
275.9166044
21
-114.8048295
0
LINE
8
0
10
275.9166044
20
-114.8048295
11
275.105397
21
-130.2835873
0
LINE
8
0
10
275.9427723
20
-114.3055148
11
291.4215301
21
-115.1167222
0
LINE
8
0
10
291.4215301
20
-115.1167222
11
292.2327375
21
-99.6379644
0
LINE
8
0
10
292.2327375
20
-99.6379644
11
276.7539797
21
-98.826757
0
LINE
8
0
10
276.7539797
20
-98.826757
11
275.9427723
21
-114.3055148
0
LINE
8
0
10
276.7801475
20
-98.3274423
11
292.2589053
21
-99.1386497
0
LINE
8
0
10
292.2589053
20
-99.1386497
11
293.0701127
21
-83.6598919
0
LINE
8
0
10
293.0701127
20
-83.6598919
11
277.5913549
21
-82.8486845
0
LINE
8
0
10
277.5913549
20
-82.8486845
11
276.7801475
21
-98.3274423
0
LINE
8
0
10
258.3799838
20
-133.6786498
11
273.8776231
21
-133.9491621
0
LINE
8
0
10
273.8776231
20
-133.9491621
11
274.1481354
21
-118.4515228
0
LINE
8
0
10
274.1481354
20
-118.4515228
11
258.6504961
21
-118.1810105
0
LINE
8
0
10
258.6504961
20
-118.1810105
11
258.3799838
21
-133.6786498
0
LINE
8
0
10
258.6592224
20
-117.6810867
11
274.1568617
21
-117.951599
0
LINE
8
0
10
274.1568617
20
-117.951599
11
274.427374
21
-102.4539597
0
LINE
8
0
10
274.427374
20
-102.4539597
11
258.9297347
21
-102.1834474
0
LINE
8
0
10
258.9297347
20
-102.1834474
11
258.6592224
21
-117.6810867
0
LINE
8
0
10
258.9384609
20
-101.6835236
11
274.4361002
21
-101.9540359
0
LINE
8
0
10
274.4361002
20
-101.9540359
11
274.7066125
21
-86.4563966
0
LINE
8
0
10
274.7066125
20
-86.4563966
11
259.2089732
21
-86.1858843
0
LINE
8
0
10
259.2089732
20
-86.1858843
11
258.9384609
21
-101.6835236
0
LINE
8
0
10
241.881683
20
-135.5250717
11
257.381683
21
-135.5250717
0
LINE
8
0
10
257.381683
20
-135.5250717
11
257.381683
21
-120.0250717
0
LINE
8
0
10
257.381683
20
-120.0250717
11
241.881683
21
-120.0250717
0
LINE
8
0
10
241.881683
20
-120.0250717
11
241.881683
21
-135.5250717
0
LINE
8
0
10
241.881683
20
-119.5250717
11
257.381683
21
-119.5250717
0
LINE
8
0
10
257.381683
20
-119.5250717
11
257.381683
21
-104.0250717
0
LINE
8
0
10
257.381683
20
-104.0250717
11
241.881683
21
-104.0250717
0
LINE
8
0
10
241.881683
20
-104.0250717
11
241.881683
21
-119.5250717
0
LINE
8
0
10
241.8816831
20
-103.5250718
11
257.3816831
21
-103.5250718
0
LINE
8
0
10
257.3816831
20
-103.5250718
11
257.3816831
21
-88.0250718
0
LINE
8
0
10
257.3816831
20
-88.0250718
11
241.8816831
21
-88.0250718
0
LINE
8
0
10
241.8816831
20
-88.0250718
11
241.8816831
21
-103.5250718
0
LINE
8
0
10
246.6516054
20
-157.2668445
11
261.6234558
21
-153.2551493
0
LINE
8
0
10
261.6234558
20
-153.2551493
11
257.6117606
21
-138.2832989
0
LINE
8
0
10
257.6117606
20
-138.2832989
11
242.6399102
21
-142.2949941
0
LINE
8
0
10
242.6399102
20
-142.2949941
11
246.6516054
21
-157.2668445
0
LINE
8
0
10
232.2420967
20
-165.734924
11
245.6654905
21
-157.984924
0
LINE
8
0
10
245.6654905
20
-157.984924
11
237.9154905
21
-144.5615302
0
LINE
8
0
10
237.9154905
20
-144.5615302
11
224.4920967
21
-152.3115302
0
LINE
8
0
10
224.4920967
20
-152.3115302
11
232.2420967
21
-165.734924
0
ENDSEC
0
EOF