0
SECTION
2
HEADER
9
$INSUNITS
70
4
0
ENDSEC
0
SECTION
2
TABLES
0
TABLE
2
LTYPE
0
LTYPE
72
65
70
64
2
CONTINUOUS
3
______
73
0
40
0
0
ENDTAB
0
TABLE
2
LAYER
0
ENDTAB
0
ENDSEC
0
SECTION
2
ENTITIES
0
LINE
8
0
10
99.2678925
20
-154.1034897
11
116.9944321
21
-150.9778225
0
LINE
8
0
10
116.9944321
20
-150.9778225
11
115.3261308
21
-141.5164156
0
LINE
8
0
10
90.5854836
20
-104.863102
11
99.2678925
21
-154.1034897
0
LINE
8
0
10
108.3120232
20
-101.7374348
11
113.8141894
21
-132.9417698
0
LINE
8
0
10
108.3120232
20
-101.7374348
11
90.5854836
21
-104.863102
0
LINE
8
0
10
115.3261308
20
-141.5164156
11
132.6234878
21
-139.6983902
0
LINE
8
0
10
132.6234878
20
-139.6983902
11
131.8492548
21
-132.3320548
0
LINE
8
0
10
109.4956706
20
-91.8538077
11
113.8141894
21
-132.9417698
0
LINE
8
0
10
128.931876
20
-104.5750497
11
127.3970647
21
-89.9722954
0
LINE
8
0
10
127.3970647
20
-89.9722954
11
109.4956706
21
-91.8538077
0
LINE
8
0
10
131.8492548
20
-132.3320548
11
146.9876986
21
-131.5386826
0
LINE
8
0
10
128.6111429
20
-98.4550974
11
128.7158149
21
-100.4523565
0
LINE
8
0
10
128.7158149
20
-100.4523565
11
128.931876
21
-104.5750497
0
LINE
8
0
10
146.2975485
20
-92.000013
11
145.7490993
21
-81.5349777
0
LINE
8
0
10
145.7490993
20
-81.5349777
11
127.7737677
21
-82.4770249
0
LINE
8
0
10
127.7737677
20
-82.4770249
11
128.6111429
21
-98.4550974
0
LINE
8
0
10
147.05197
20
-135.2207872
11
163.5259042
21
-134.9332336
0
LINE
8
0
10
146.9876986
20
-131.5386826
11
147.05197
21
-135.2207872
0
LINE
8
0
10
164.2090887
20
-86.7750718
11
164.1766081
21
-84.9142592
0
LINE
8
0
10
164.1766081
20
-84.9142592
11
146.1793496
21
-85.2284025
0
LINE
8
0
10
146.1793496
20
-85.2284025
11
146.2975485
21
-92.000013
0
LINE
8
0
10
163.5259042
20
-136.7750717
11
163.6558597
21
-136.7750717
0
LINE
8
0
10
163.7466749
20
-136.7750717
11
181.5259042
21
-136.7750717
0
LINE
8
0
10
181.5259042
20
-136.7750717
11
181.5259042
21
-86.7750718
0
LINE
8
0
10
163.5259042
20
-134.9332336
11
163.5259042
21
-136.7750717
0
LINE
8
0
10
181.5259041
20
-86.7750718
11
164.2090887
21
-86.7750718
0
LINE
8
0
10
159.0032004
20
-154.1390327
11
174.8219745
21
-158.3776605
0
LINE
8
0
10
177.9577558
20
-152.946328
11
181.048608
21
-141.4111107
0
LINE
8
0
10
181.048608
20
-141.4111107
11
163.7466749
21
-136.7750717
0
LINE
8
0
10
163.6558597
20
-136.7750717
11
159.0032004
21
-154.1390327
0
LINE
8
0
10
174.784565
20
-158.4424557
11
190.3730222
21
-167.4424557
0
LINE
8
0
10
190.3730222
20
-167.4424557
11
199.3730222
21
-151.8539985
0
LINE
8
0
10
199.3730222
20
-151.8539985
11
183.784565
21
-142.8539985
0
LINE
8
0
10
183.784565
20
-142.8539985
11
177.9577558
21
-152.946328
0
LINE
8
0
10
174.8219745
20
-158.3776605
11
174.784565
21
-158.4424557
0
LINE
8
0
10
305.1631551
20
-150.9778225
11
322.8896947
21
-154.1034897
0
LINE
8
0
10
322.8896947
20
-154.1034897
11
331.5721036
21
-104.863102
0
LINE
8
0
10
306.8314564
20
-141.5164156
11
305.1631551
21
-150.9778225
0
LINE
8
0
10
308.3433978
20
-132.9417698
11
313.845564
21
-101.7374348
0
LINE
8
0
10
331.5721036
20
-104.863102
11
313.845564
21
-101.7374348
0
LINE
8
0
10
289.5340994
20
-139.6983902
11
306.8314564
21
-141.5164156
0
LINE
8
0
10
308.3433978
20
-132.9417698
11
312.6619166
21
-91.8538077
0
LINE
8
0
10
290.3083324
20
-132.3320548
11
289.5340994
21
-139.6983902
0
LINE
8
0
10
312.6619166
20
-91.8538077
11
294.7605225
21
-89.9722954
0
LINE
8
0
10
294.7605225
20
-89.9722954
11
293.2257112
21
-104.5750497
0
LINE
8
0
10
275.1698886
20
-131.5386826
11
290.3083324
21
-132.3320548
0
LINE
8
0
10
293.2257112
20
-104.5750497
11
293.4417723
21
-100.4523565
0
LINE
8
0
10
293.4417723
20
-100.4523565
11
293.5464443
21
-98.4550974
0
LINE
8
0
10
293.5464443
20
-98.4550974
11
294.3838195
21
-82.4770249
0
LINE
8
0
10
294.3838195
20
-82.4770249
11
276.4084879
21
-81.5349777
0
LINE
8
0
10
276.4084879
20
-81.5349777
11
275.8600387
21
-92.000013
0
LINE
8
0
10
258.631683
20
-134.9332336
11
275.1056172
21
-135.2207872
0
LINE
8
0
10
275.1056172
20
-135.2207872
11
275.1698886
21
-131.5386826
0
LINE
8
0
10
275.8600387
20
-92.000013
11
275.9782376
21
-85.2284025
0
LINE
8
0
10
275.9782376
20
-85.2284025
11
257.9809791
21
-84.9142592
0
LINE
8
0
10
257.9809791
20
-84.9142592
11
257.9484985
21
-86.7750718
0
LINE
8
0
10
240.631683
20
-136.7750717
11
258.4109123
21
-136.7750717
0
LINE
8
0
10
258.5017275
20
-136.7750717
11
258.631683
21
-136.7750717
0
LINE
8
0
10
258.631683
20
-136.7750717
11
258.631683
21
-134.9332336
0
LINE
8
0
10
240.631683
20
-136.7750717
11
240.631683
21
-102.7750717
0
LINE
8
0
10
257.9484985
20
-86.7750718
11
240.6316831
21
-86.7750718
0
LINE
8
0
10
240.6316831
20
-86.7750718
11
240.631683
21
-102.7750717
0
LINE
8
0
10
247.3356127
20
-158.3776605
11
263.1543868
21
-154.1390327
0
LINE
8
0
10
263.1543868
20
-154.1390327
11
258.5017275
21
-136.7750717
0
LINE
8
0
10
258.4109123
20
-136.7750717
11
241.1089792
21
-141.4111107
0
LINE
8
0
10
241.1089792
20
-141.4111107
11
244.1998314
21
-152.946328
0
LINE
8
0
10
231.784565
20
-167.4424557
11
247.3730222
21
-158.4424557
0
LINE
8
0
10
247.3730222
20
-158.4424557
11
247.3356127
21
-158.3776605
0
LINE
8
0
10
244.1998314
20
-152.946328
11
238.3730222
21
-142.8539985
0
LINE
8
0
10
238.3730222
20
-142.8539985
11
222.784565
21
-151.8539985
0
LINE
8
0
10
222.784565
20
-151.8539985
11
231.784565
21
-167.4424557
0
ENDSEC
0
EOF