%TF.GenerationSoftware,KiCad,Pcbnew,9.0.1*%
%TF.CreationDate,2025-04-18T20:51:15-05:00*%
%TF.ProjectId,utility_board,7574696c-6974-4795-9f62-6f6172642e6b,v1.0.0*%
%TF.SameCoordinates,Original*%
%TF.FileFunction,Paste,Top*%
%TF.FilePolarity,Positive*%
%FSLAX46Y46*%
G04 Gerber Fmt 4.6, Leading zero omitted, Abs format (unit mm)*
G04 Created by KiCad (PCBNEW 9.0.1) date 2025-04-18 20:51:15*
%MOMM*%
%LPD*%
G01*
G04 APERTURE LIST*
G04 Aperture macros list*
%AMRoundRect*
0 Rectangle with rounded corners*
0 $1 Rounding radius*
0 $2 $3 $4 $5 $6 $7 $8 $9 X,Y pos of 4 corners*
0 Add a 4 corners polygon primitive as box body*
4,1,4,$2,$3,$4,$5,$6,$7,$8,$9,$2,$3,0*
0 Add four circle primitives for the rounded corners*
1,1,$1+$1,$2,$3*
1,1,$1+$1,$4,$5*
1,1,$1+$1,$6,$7*
1,1,$1+$1,$8,$9*
0 Add four rect primitives between the rounded corners*
20,1,$1+$1,$2,$3,$4,$5,0*
20,1,$1+$1,$4,$5,$6,$7,0*
20,1,$1+$1,$6,$7,$8,$9,0*
20,1,$1+$1,$8,$9,$2,$3,0*%
G04 Aperture macros list end*
%ADD10R,1.550000X2.000000*%
%ADD11R,2.000000X2.000000*%
%ADD12RoundRect,0.045000X-0.105000X-0.217500X0.105000X-0.217500X0.105000X0.217500X-0.105000X0.217500X0*%
%ADD13RoundRect,0.075000X-0.575000X-0.175000X0.575000X-0.175000X0.575000X0.175000X-0.575000X0.175000X0*%
%ADD14RoundRect,0.095000X-0.380000X0.921000X-0.380000X-0.921000X0.380000X-0.921000X0.380000X0.921000X0*%
%ADD15RoundRect,0.095000X0.380000X-0.921000X0.380000X0.921000X-0.380000X0.921000X-0.380000X-0.921000X0*%
%ADD16RoundRect,0.095000X-0.380000X0.521000X-0.380000X-0.521000X0.380000X-0.521000X0.380000X0.521000X0*%
%ADD17RoundRect,0.095000X0.380000X-0.521000X0.380000X0.521000X-0.380000X0.521000X-0.380000X-0.521000X0*%
G04 APERTURE END LIST*
D10*
%TO.C,S1*%
X107500000Y-192650000D03*
X112500000Y-192650000D03*
D11*
X103650000Y-184000000D03*
X103650000Y-196000000D03*
X116350000Y-184000000D03*
X116350000Y-196000000D03*
%TD*%
D10*
%TO.C,S2*%
X123500000Y-192650000D03*
X128500000Y-192650000D03*
D11*
X119650000Y-184000000D03*
X119650000Y-196000000D03*
X132350000Y-184000000D03*
X132350000Y-196000000D03*
%TD*%
D10*
%TO.C,S3*%
X139500000Y-192650000D03*
X144500000Y-192650000D03*
D11*
X135650000Y-184000000D03*
X135650000Y-196000000D03*
X148350000Y-184000000D03*
X148350000Y-196000000D03*
%TD*%
D10*
%TO.C,S4*%
X155500000Y-192650000D03*
X160500000Y-192650000D03*
D11*
X151650000Y-184000000D03*
X151650000Y-196000000D03*
X164350000Y-184000000D03*
X164350000Y-196000000D03*
%TD*%
D10*
%TO.C,S5*%
X171500000Y-192650000D03*
X176500000Y-192650000D03*
D11*
X167650000Y-184000000D03*
X167650000Y-196000000D03*
X180350000Y-184000000D03*
X180350000Y-196000000D03*
%TD*%
D12*
%TO.C,D1*%
X142500000Y-188187500D03*
X142000000Y-188187500D03*
X141500000Y-188187500D03*
X142500000Y-186812500D03*
X141500000Y-186812500D03*
D13*
X142000000Y-187500000D03*
%TD*%
D14*
%TO.C,J1*%
X102883500Y-175287000D03*
X105423500Y-175287000D03*
X107963500Y-175287000D03*
X110503500Y-175287000D03*
X113043500Y-175287000D03*
X115583500Y-175287000D03*
X118123500Y-175287000D03*
D15*
X118123500Y-154713000D03*
X115583500Y-154713000D03*
X113043500Y-154713000D03*
X110503500Y-154713000D03*
X107963500Y-154713000D03*
X105423500Y-154713000D03*
X102883500Y-154713000D03*
D16*
X104153500Y-174887000D03*
X106693500Y-174887000D03*
X109233500Y-174887000D03*
X111773500Y-174887000D03*
X114313500Y-174887000D03*
X116853500Y-174887000D03*
D17*
X116853500Y-155113000D03*
X114313500Y-155113000D03*
X111773500Y-155113000D03*
%TD*%
M02*
