%TF.GenerationSoftware,KiCad,Pcbnew,9.0.1*%
%TF.CreationDate,2025-04-18T20:51:15-05:00*%
%TF.ProjectId,utility_board,7574696c-6974-4795-9f62-6f6172642e6b,v1.0.0*%
%TF.SameCoordinates,Original*%
%TF.FileFunction,Copper,L1,Top*%
%TF.FilePolarity,Positive*%
%FSLAX46Y46*%
G04 Gerber Fmt 4.6, Leading zero omitted, Abs format (unit mm)*
G04 Created by KiCad (PCBNEW 9.0.1) date 2025-04-18 20:51:15*
%MOMM*%
%LPD*%
G01*
G04 APERTURE LIST*
G04 Aperture macros list*
%AMRoundRect*
0 Rectangle with rounded corners*
0 $1 Rounding radius*
0 $2 $3 $4 $5 $6 $7 $8 $9 X,Y pos of 4 corners*
0 Add a 4 corners polygon primitive as box body*
4,1,4,$2,$3,$4,$5,$6,$7,$8,$9,$2,$3,0*
0 Add four circle primitives for the rounded corners*
1,1,$1+$1,$2,$3*
1,1,$1+$1,$4,$5*
1,1,$1+$1,$6,$7*
1,1,$1+$1,$8,$9*
0 Add four rect primitives between the rounded corners*
20,1,$1+$1,$2,$3,$4,$5,0*
20,1,$1+$1,$4,$5,$6,$7,0*
20,1,$1+$1,$6,$7,$8,$9,0*
20,1,$1+$1,$8,$9,$2,$3,0*%
G04 Aperture macros list end*
%TA.AperFunction,SMDPad,CuDef*%
%ADD10R,1.550000X2.000000*%
%TD*%
%TA.AperFunction,SMDPad,CuDef*%
%ADD11R,2.000000X2.000000*%
%TD*%
%TA.AperFunction,SMDPad,CuDef*%
%ADD12RoundRect,0.045000X-0.105000X-0.217500X0.105000X-0.217500X0.105000X0.217500X-0.105000X0.217500X0*%
%TD*%
%TA.AperFunction,SMDPad,CuDef*%
%ADD13RoundRect,0.075000X-0.575000X-0.175000X0.575000X-0.175000X0.575000X0.175000X-0.575000X0.175000X0*%
%TD*%
%TA.AperFunction,SMDPad,CuDef*%
%ADD14RoundRect,0.095000X-0.380000X0.921000X-0.380000X-0.921000X0.380000X-0.921000X0.380000X0.921000X0*%
%TD*%
%TA.AperFunction,SMDPad,CuDef*%
%ADD15RoundRect,0.095000X0.380000X-0.921000X0.380000X0.921000X-0.380000X0.921000X-0.380000X-0.921000X0*%
%TD*%
%TA.AperFunction,SMDPad,CuDef*%
%ADD16RoundRect,0.095000X-0.380000X0.521000X-0.380000X-0.521000X0.380000X-0.521000X0.380000X0.521000X0*%
%TD*%
%TA.AperFunction,SMDPad,CuDef*%
%ADD17RoundRect,0.095000X0.380000X-0.521000X0.380000X0.521000X-0.380000X0.521000X-0.380000X-0.521000X0*%
%TD*%
G04 APERTURE END LIST*
D10*
%TO.P,S1,1*%
%TO.N,pinky_home*%
X107500000Y-192650000D03*
%TO.P,S1,2*%
%TO.N,D5*%
X112500000Y-192650000D03*
D11*
%TO.P,S1,MP*%
%TO.N,N/C*%
X103650000Y-184000000D03*
X103650000Y-196000000D03*
X116350000Y-184000000D03*
X116350000Y-196000000D03*
%TD*%
D10*
%TO.P,S2,1*%
%TO.N,ring_home*%
X123500000Y-192650000D03*
%TO.P,S2,2*%
%TO.N,D4*%
X128500000Y-192650000D03*
D11*
%TO.P,S2,MP*%
%TO.N,N/C*%
X119650000Y-184000000D03*
X119650000Y-196000000D03*
X132350000Y-184000000D03*
X132350000Y-196000000D03*
%TD*%
D10*
%TO.P,S3,1*%
%TO.N,middle_home*%
X139500000Y-192650000D03*
%TO.P,S3,2*%
%TO.N,D3*%
X144500000Y-192650000D03*
D11*
%TO.P,S3,MP*%
%TO.N,N/C*%
X135650000Y-184000000D03*
X135650000Y-196000000D03*
X148350000Y-184000000D03*
X148350000Y-196000000D03*
%TD*%
D10*
%TO.P,S4,1*%
%TO.N,index_home*%
X155500000Y-192650000D03*
%TO.P,S4,2*%
%TO.N,D2*%
X160500000Y-192650000D03*
D11*
%TO.P,S4,MP*%
%TO.N,N/C*%
X151650000Y-184000000D03*
X151650000Y-196000000D03*
X164350000Y-184000000D03*
X164350000Y-196000000D03*
%TD*%
D10*
%TO.P,S5,1*%
%TO.N,inner_home*%
X171500000Y-192650000D03*
%TO.P,S5,2*%
%TO.N,D1*%
X176500000Y-192650000D03*
D11*
%TO.P,S5,MP*%
%TO.N,N/C*%
X167650000Y-184000000D03*
X167650000Y-196000000D03*
X180350000Y-184000000D03*
X180350000Y-196000000D03*
%TD*%
D12*
%TO.P,D1,1*%
%TO.N,index_home*%
X142500000Y-188187500D03*
%TO.P,D1,2*%
%TO.N,middle_home*%
X142000000Y-188187500D03*
%TO.P,D1,3*%
%TO.N,ring_home*%
X141500000Y-188187500D03*
%TO.P,D1,4*%
%TO.N,inner_home*%
X142500000Y-186812500D03*
%TO.P,D1,5*%
%TO.N,pinky_home*%
X141500000Y-186812500D03*
D13*
%TO.P,D1,6*%
%TO.N,D8*%
X142000000Y-187500000D03*
%TD*%
D14*
%TO.P,J1,1*%
%TO.N,P0.02*%
X102883500Y-175287000D03*
%TO.P,J1,2*%
%TO.N,P0.03*%
X105423500Y-175287000D03*
%TO.P,J1,3*%
%TO.N,P0.28*%
X107963500Y-175287000D03*
%TO.P,J1,4*%
%TO.N,P0.29*%
X110503500Y-175287000D03*
%TO.P,J1,5*%
%TO.N,P0.04*%
X113043500Y-175287000D03*
%TO.P,J1,6*%
%TO.N,P0.05*%
X115583500Y-175287000D03*
%TO.P,J1,7*%
%TO.N,P1.11*%
X118123500Y-175287000D03*
D15*
%TO.P,J1,8*%
%TO.N,P1.12*%
X118123500Y-154713000D03*
%TO.P,J1,9*%
%TO.N,P1.13*%
X115583500Y-154713000D03*
%TO.P,J1,10*%
%TO.N,P1.14*%
X113043500Y-154713000D03*
%TO.P,J1,11*%
%TO.N,P1.15*%
X110503500Y-154713000D03*
%TO.P,J1,12*%
%TO.N,3V3*%
X107963500Y-154713000D03*
%TO.P,J1,13*%
%TO.N,GND*%
X105423500Y-154713000D03*
%TO.P,J1,14*%
%TO.N,5V*%
X102883500Y-154713000D03*
D16*
%TO.P,J1,15*%
%TO.N,P0.15*%
X104153500Y-174887000D03*
%TO.P,J1,16*%
%TO.N,P0.19*%
X106693500Y-174887000D03*
%TO.P,J1,17*%
%TO.N,P1.01*%
X109233500Y-174887000D03*
%TO.P,J1,18*%
%TO.N,P0.09*%
X111773500Y-174887000D03*
%TO.P,J1,19*%
%TO.N,P0.10*%
X114313500Y-174887000D03*
%TO.P,J1,20*%
%TO.N,P0.31*%
X116853500Y-174887000D03*
D17*
%TO.P,J1,21*%
%TO.N,P1.03*%
X116853500Y-155113000D03*
%TO.P,J1,22*%
%TO.N,P1.05*%
X114313500Y-155113000D03*
%TO.P,J1,23*%
%TO.N,P1.07*%
X111773500Y-155113000D03*
%TD*%
M02*
